<svg width="80" height="80" viewBox="0 0 80 80" fill="none" xmlns="http://www.w3.org/2000/svg">
<g clip-path="url(#clip0_2061_4855)">
<path d="M43.736 70.9661C43.6947 70.9704 43.6555 70.9724 43.6167 70.9768C44.2713 70.9037 45.0552 71.1208 45.7244 71.1313C46.5306 71.1443 47.3381 71.1021 48.1383 71.0022C50.0466 70.7631 51.9133 70.1907 53.6441 69.3499C53.6441 69.3499 53.6181 69.328 53.5769 69.2823C53.4292 69.1272 53.0844 68.6991 53.0932 68.1357C50.2452 69.6428 47.0848 70.6253 43.736 70.9661Z" fill="#781C6D"/>
<path d="M21.226 61.6621C19.4171 59.4632 17.9638 56.9604 16.9509 54.2393C16.9965 54.9489 17.0701 55.6825 17.1807 56.4407C17.1873 56.4843 17.1938 56.5301 17.2002 56.5738C17.2414 56.8469 17.2674 57.1021 17.2805 57.3427C17.8639 60.1773 19.0179 63.062 21.5449 65.4187C21.5449 65.4187 21.5275 65.3619 21.5036 65.2634C21.5015 65.257 21.4993 65.2505 21.4993 65.2439C21.2174 64.733 20.495 63.1669 21.226 61.6621Z" fill="#781C6D"/>
<path d="M35.6541 70.5092C34.6 70.2844 33.5719 69.9915 32.5698 69.6357C33.4115 70.4787 34.3615 71.2581 35.4221 71.887C35.4525 71.9047 35.485 71.9245 35.5177 71.9418C35.5589 71.9525 35.5998 71.9618 35.6412 71.9702C35.6412 71.9702 35.6369 71.955 35.6304 71.9288C35.5955 71.7605 35.4764 71.0991 35.6541 70.5092Z" fill="#781C6D"/>
<path d="M22.0911 27.5523C25.5268 23.7763 30.0578 21.0265 35.1771 19.8126L33.8884 19.6573L33.8408 19.6509C33.8581 19.6595 33.8731 19.6681 33.8884 19.677C33.8884 19.677 23.4967 19.3363 17.6401 27.6353C17.6401 27.6353 17.6707 27.631 17.7247 27.6265L17.729 27.6242C17.7574 27.6178 17.8029 27.6047 17.8658 27.5872C18.4364 27.4345 20.3494 27.0065 22.0911 27.5523Z" fill="#781C6D"/>
<path d="M15.4274 42.6201C15.6553 40.1916 16.217 37.8592 17.0649 35.6729C16.7286 35.9985 16.4208 36.3129 16.1541 36.6121C16.0585 36.7213 15.9675 36.8282 15.8829 36.9333C15.7635 37.0818 15.6596 37.193 15.5725 37.2629C13.87 39.4993 12.3128 42.1417 12.0437 45.2495C12.0675 45.2166 12.0914 45.184 12.1152 45.149C13.0242 43.8976 14.217 42.6376 15.4274 42.6201Z" fill="#781C6D"/>
<path d="M67.1084 40.4853L66.629 41.1078L66.5641 41.1931L66.2536 41.2149L65.3319 41.278C65.5729 42.4793 65.6983 43.7241 65.6983 44.9973C65.6983 49.8871 63.8419 54.3379 60.803 57.6797C59.0005 60.394 56.7383 62.0495 54.5237 63.0976C54.4522 63.1302 54.3828 63.1633 54.3111 63.1938C53.8687 63.3971 53.4304 63.5737 52.9968 63.7312C52.9772 63.7376 52.9576 63.7465 52.938 63.7531C49.8191 64.8778 47.0447 64.9651 46.1164 65.3647C45.9473 65.4368 45.8388 65.5198 45.8019 65.6226C45.2555 67.1117 47.2836 67.828 47.2836 67.828C40.9932 68.4093 37.089 65.463 34.497 63.3271L34.4906 63.3224C33.2325 62.2831 32.2846 61.4378 31.5232 61.2853C31.4776 61.2742 31.4343 61.2674 31.3908 61.2635C29.0896 61.0427 29.1437 62.973 29.1437 62.973C25.8012 58.339 24.6518 51.2763 22.5152 51.8833C20.3765 52.4904 20.2681 54.4778 20.2681 54.4778C18.6241 50.1186 20.214 44.6566 22.897 42.2282C25.5822 39.8016 24.9252 36.6001 22.897 36.7116C20.8713 36.8207 20.049 38.3669 20.049 38.3669C20.0338 38.2925 20.0209 38.2184 20.0099 38.144L20.049 38.0896C20.049 38.0896 20.3029 32.2214 28.389 29.0349C29.0353 28.7795 29.7338 28.5412 30.4864 28.3253C42.5679 24.8485 30.2391 19.5522 41.555 25.8268L41.5224 25.8529C33.4408 27.9123 27.4607 35.2832 27.4607 44.0606C27.4607 49.4854 29.7445 54.3729 33.3996 57.7996C30.8727 55.0741 29.1459 51.5929 28.5884 47.7295C28.5866 47.7228 28.5866 47.7143 28.5841 47.7077C28.5841 47.7009 28.582 47.6966 28.582 47.6902C28.4562 46.81 28.3911 45.9123 28.3911 44.9973C28.3911 44.5431 28.4064 44.0932 28.4388 43.6477C28.4412 43.6215 28.4433 43.5953 28.4455 43.5688C29.1676 33.8636 37.2191 26.2155 47.0447 26.2155C47.4158 26.2155 47.7845 26.2262 48.1511 26.248L47.0946 19.8186C45.1773 19.36 43.1775 19.1177 41.1212 19.1177C39.0759 19.1177 37.0847 19.3579 35.1761 19.8121C30.057 21.0263 25.5257 23.7761 22.09 27.5522C22.4633 27.6678 22.8277 27.8295 23.1704 28.0478C25.1137 29.2883 20.0057 32.8437 17.0645 35.6719C16.2163 37.8581 15.6546 40.1905 15.427 42.6191C15.6329 42.6169 15.8412 42.6496 16.0474 42.724C18.3507 43.5645 16.533 47.889 16.9497 54.2376C17.9625 56.9587 19.4158 59.4615 21.2247 61.6604C21.3701 61.357 21.576 61.0558 21.8558 60.7652C23.8277 58.7255 26.6776 60.4902 28.1028 63.2484C28.9073 64.8055 30.378 67.4395 32.571 69.6341C33.573 69.9902 34.6011 70.2831 35.6552 70.5079C35.768 70.1299 36.0002 69.7828 36.4534 69.6102C36.4818 69.5972 36.5078 69.5885 36.538 69.5776C37.0065 69.4291 37.6899 69.453 38.6789 69.7849C40.1517 70.2784 41.8087 70.7437 43.6177 70.9753H43.6259C47.0163 70.6451 50.2149 69.6574 53.0942 68.1341C53.0942 68.1341 53.0796 67.7152 53.2476 67.3981C53.4401 67.034 53.8556 66.7469 54.1873 66.5118C54.7731 66.0975 55.43 65.7964 56.0977 65.5428C56.7023 65.3126 57.2599 65.1513 57.9599 64.8032L57.966 64.7989C62.4901 60.8731 65.6457 55.3917 66.6165 49.1818C66.6649 48.8708 67.1019 48.8548 67.1715 49.1616C67.1728 49.1675 67.1743 49.1737 67.1756 49.1793C67.2146 48.865 67.2473 48.5461 67.2755 48.2208C67.4771 45.9191 67.4468 43.3485 67.1084 40.4853Z" fill="#451065"/>
<path d="M61.8847 61.6982C61.8304 61.7549 61.7763 61.8138 61.7197 61.8709C61.6439 61.9514 61.5659 62.0297 61.4879 62.1086C61.4595 62.137 61.4315 62.1675 61.4009 62.198C61.5659 62.0389 61.7264 61.8709 61.8847 61.6982Z" fill="black"/>
<path d="M65.2781 33.0487C65.0418 35.7912 64.6265 38.852 63.9293 42.151C63.3588 44.851 62.6814 47.3199 61.9702 49.5396C62.6878 49.2168 63.4053 48.8937 64.1232 48.5709C63.8445 50.3893 62.6838 55.8479 58.5133 59.0334C55.474 61.2565 51.6957 62.6152 47.5849 62.7149H47.578C47.4201 62.7174 47.262 62.7198 47.102 62.7198C36.7713 62.7198 28.3943 54.7759 28.3943 44.9769C28.3943 37.6015 33.3727 30.3586 41.0553 29.2913C41.6603 30.1434 42.5169 31.0296 43.8066 31.0293C48.0471 31.0285 49.8576 30.4203 52.157 31.0293C54.4561 31.6386 56.9369 34.1365 56.9369 34.1365L59.1758 31.8824L59.9016 34.1365C59.9016 34.1365 62.1595 29.8377 62.1595 25.4513C62.1595 25.4513 58.689 28.2906 55.6663 22.9874C54.5771 19.6977 36.0616 15.6766 35.0934 8C35.0934 8 31.9469 15.0674 39.329 18.9666L31.9469 15.5548C31.9469 15.5548 32.4241 18.3212 34.7023 20.5145C28.5281 21.6436 24.3929 24.8785 21.6287 28.7654C21.7194 28.9269 21.781 29.1155 21.8003 29.3325C21.9369 30.8452 20.8164 32.4521 19.6163 33.2651C19.3853 33.4216 19.1467 33.5625 18.906 33.699C16.401 39.6352 16.1266 45.7056 16.1849 47.7466C19.6466 68.2564 42.3833 68.4659 42.6553 68.4659C52.5826 68.4659 61.1983 62.3313 64.9397 53.654L64.9438 53.6474L64.9449 53.6424C65.8206 51.6085 66.4295 49.4347 66.7235 47.1678C68.1696 37.4302 65.2781 33.0487 65.2781 33.0487Z" fill="#451065"/>
<mask id="mask0_2061_4855" style="mask-type:luminance" maskUnits="userSpaceOnUse" x="16" y="8" width="52" height="61">
<path d="M39.329 18.9663L31.9471 15.5545C31.9471 15.5545 32.4242 18.321 34.7023 20.5143C17.2607 23.7039 16.069 43.6888 16.185 47.7464C19.6466 68.2562 42.3835 68.4657 42.6556 68.4657C52.5826 68.4657 61.1983 62.3313 64.9401 53.6536L64.944 53.6474L64.9449 53.6422C65.8206 51.6081 66.4295 49.4347 66.7237 47.1678C68.1698 37.43 65.2785 33.0487 65.2785 33.0487C65.042 35.7909 64.6269 38.8518 63.9293 42.1506C63.3588 44.8508 62.6816 47.3199 61.9702 49.5394C62.6878 49.2166 63.4057 48.8937 64.1234 48.5707C63.8443 50.3893 62.6838 55.8479 58.5137 59.0332C55.4742 61.2565 51.6955 62.6152 47.5849 62.7149H47.578C47.4203 62.7174 47.262 62.7194 47.102 62.7194C36.7717 62.7194 28.3946 54.7757 28.3946 44.9769C28.3946 37.6011 33.3727 30.3586 41.0555 29.2913C41.6607 30.1432 42.5169 31.0296 43.8068 31.0293C48.0471 31.0281 49.8576 30.4201 52.157 31.0293C54.4563 31.6386 56.9371 34.1365 56.9371 34.1365L59.1758 31.8824L59.9019 34.1365C59.9019 34.1365 62.1599 29.8377 62.1599 25.4511C62.1599 25.4511 58.6894 28.2903 55.6663 22.9874C54.5771 19.6974 36.0616 15.6763 35.0934 8C35.0934 8 31.9471 15.0671 39.329 18.9663Z" fill="#8A267E"/>
</mask>
<g mask="url(#mask0_2061_4855)">
<path d="M32.5044 15.022L57.5967 26.6959L59.5612 31.8828C58.5879 30.593 57.0098 28.8289 54.6496 27.4292C50.3583 24.8847 46.8927 25.5693 43.1306 24.5833C39.9104 23.7389 34.826 21.4582 32.5044 15.022Z" fill="#8A267E"/>
</g>
<mask id="mask1_2061_4855" style="mask-type:luminance" maskUnits="userSpaceOnUse" x="16" y="8" width="52" height="61">
<path d="M39.329 18.9663L31.9471 15.5545C31.9471 15.5545 32.4242 18.321 34.7023 20.5143C17.2607 23.7039 16.069 43.6888 16.185 47.7464C19.6466 68.2562 42.3835 68.4657 42.6556 68.4657C52.5826 68.4657 61.1983 62.3313 64.9401 53.6536L64.944 53.6474L64.9449 53.6422C65.8206 51.6081 66.4295 49.4347 66.7237 47.1678C68.1698 37.43 65.2785 33.0487 65.2785 33.0487C65.042 35.7909 64.6269 38.8518 63.9293 42.1506C63.3588 44.8508 62.6816 47.3199 61.9702 49.5394C62.6878 49.2166 63.4057 48.8937 64.1234 48.5707C63.8443 50.3893 62.6838 55.8479 58.5137 59.0332C55.4742 61.2565 51.6955 62.6152 47.5849 62.7149H47.578C47.4203 62.7174 47.262 62.7194 47.102 62.7194C36.7717 62.7194 28.3946 54.7757 28.3946 44.9769C28.3946 37.6011 33.3727 30.3586 41.0555 29.2913C41.6607 30.1432 42.5169 31.0296 43.8068 31.0293C48.0471 31.0281 49.8576 30.4201 52.157 31.0293C54.4563 31.6386 56.9371 34.1365 56.9371 34.1365L59.1758 31.8824L59.9019 34.1365C59.9019 34.1365 62.1599 29.8377 62.1599 25.4511C62.1599 25.4511 58.6894 28.2903 55.6663 22.9874C54.5771 19.6974 36.0616 15.6763 35.0934 8C35.0934 8 31.9471 15.0671 39.329 18.9663Z" fill="#781C6D"/>
</mask>
<g mask="url(#mask1_2061_4855)">
<path d="M33.9917 13.9888L59.084 25.6628L61.0487 30.8499C60.0754 29.5599 58.4973 27.7958 56.1373 26.396C51.8458 23.8514 48.38 24.5362 44.6179 23.5501C41.3977 22.7057 36.3135 20.425 33.9917 13.9888Z" fill="#781C6D"/>
</g>
<mask id="mask2_2061_4855" style="mask-type:luminance" maskUnits="userSpaceOnUse" x="16" y="8" width="52" height="61">
<path d="M39.329 18.9663L31.9471 15.5545C31.9471 15.5545 32.4242 18.321 34.7023 20.5143C17.2607 23.7039 16.069 43.6888 16.185 47.7464C19.6466 68.2562 42.3835 68.4657 42.6556 68.4657C52.5826 68.4657 61.1983 62.3313 64.9401 53.6536L64.944 53.6474L64.9449 53.6422C65.8206 51.6081 66.4295 49.4347 66.7237 47.1678C68.1698 37.43 65.2785 33.0487 65.2785 33.0487C65.042 35.7909 64.6269 38.8518 63.9293 42.1506C63.3588 44.8508 62.6816 47.3199 61.9702 49.5394C62.6878 49.2166 63.4057 48.8937 64.1234 48.5707C63.8443 50.3893 62.6838 55.8479 58.5137 59.0332C55.4742 61.2565 51.6955 62.6152 47.5849 62.7149H47.578C47.4203 62.7174 47.262 62.7194 47.102 62.7194C36.7717 62.7194 28.3946 54.7757 28.3946 44.9769C28.3946 37.6011 33.3727 30.3586 41.0555 29.2913C41.6607 30.1432 42.5169 31.0296 43.8068 31.0293C48.0471 31.0281 49.8576 30.4201 52.157 31.0293C54.4563 31.6386 56.9371 34.1365 56.9371 34.1365L59.1758 31.8824L59.9019 34.1365C59.9019 34.1365 62.1599 29.8377 62.1599 25.4511C62.1599 25.4511 58.6894 28.2903 55.6663 22.9874C54.5771 19.6974 36.0616 15.6763 35.0934 8C35.0934 8 31.9471 15.0671 39.329 18.9663Z" fill="#C0177B"/>
</mask>
<g mask="url(#mask2_2061_4855)">
<path d="M35.6587 6.10645C35.6587 6.10645 36.01 11.411 41.7722 14.1084C47.535 16.8056 56.5054 19.791 57.5362 22.8297C58.5668 25.8679 63.245 23.0497 63.245 23.0497C63.245 23.0497 61.7328 33.6187 60.2148 35.1471L59.1764 31.8827L58.8559 30.9794C58.1412 28.7883 56.6669 26.9233 54.6876 25.7624C53.7218 25.1964 52.5152 24.6421 51.0174 24.1781C48.4636 23.3869 43.5401 21.3022 39.3296 18.9671C38.6929 18.6137 37.997 18.2765 37.4389 17.857C33.2813 14.7323 31.1396 10.6565 35.6587 6.10645Z" fill="#C0177B"/>
</g>
<mask id="mask3_2061_4855" style="mask-type:luminance" maskUnits="userSpaceOnUse" x="34" y="8" width="29" height="27">
<path d="M39.0227 18.7981C39.1263 18.8539 39.2295 18.91 39.3311 18.9663C43.5415 21.3017 48.465 23.3862 51.0186 24.1777C52.5166 24.6415 53.7232 25.1955 54.6887 25.7619C56.6679 26.9227 58.1426 28.7874 58.857 30.9788L59.1777 31.8824L59.9038 34.1365C59.9038 34.1365 62.1617 29.8377 62.1617 25.4511C62.1617 25.4511 58.6912 28.2903 55.6681 22.9874C54.5789 19.6974 36.0635 15.6763 35.0954 8C35.0954 8 32.038 14.8676 39.0227 18.7981Z" fill="#E84A86"/>
</mask>
<g mask="url(#mask3_2061_4855)">
<path d="M60.004 34.3299C60.004 34.3299 61.5218 32.6516 60.718 29.3251C59.9146 25.9987 54.0807 24.6797 52.9198 23.511C51.759 22.342 52.9198 21.8627 52.9198 21.8627C52.9198 21.8627 29.3158 13.1713 36.1917 6.24847C43.0674 -0.674673 60.4207 18.1764 60.4207 18.1764L67.1326 23.0313V28.4858C67.1326 28.9053 60.004 34.3299 60.004 34.3299Z" fill="#E84A86"/>
</g>
<mask id="mask4_2061_4855" style="mask-type:luminance" maskUnits="userSpaceOnUse" x="16" y="8" width="52" height="61">
<path d="M39.329 18.9663L31.9471 15.5545C31.9471 15.5545 32.4242 18.321 34.7023 20.5143C17.2607 23.7039 16.069 43.6888 16.185 47.7464C19.6466 68.2562 42.3835 68.4657 42.6556 68.4657C52.5826 68.4657 61.1983 62.3313 64.9401 53.6536L64.944 53.6474L64.9449 53.6422C65.8206 51.6081 66.4295 49.4347 66.7237 47.1678C68.1698 37.43 65.2785 33.0487 65.2785 33.0487C65.042 35.7909 64.6269 38.8518 63.9293 42.1506C63.3588 44.8508 62.6816 47.3199 61.9702 49.5394C62.6878 49.2166 63.4057 48.8937 64.1234 48.5707C63.8443 50.3893 62.6838 55.8479 58.5137 59.0332C55.4742 61.2565 51.6955 62.6152 47.5849 62.7149H47.578C47.4203 62.7174 47.262 62.7194 47.102 62.7194C36.7717 62.7194 28.3946 54.7757 28.3946 44.9769C28.3946 37.6011 33.3727 30.3586 41.0555 29.2913C41.6607 30.1432 42.5169 31.0296 43.8068 31.0293C48.0471 31.0281 49.8576 30.4201 52.157 31.0293C54.4563 31.6386 56.9371 34.1365 56.9371 34.1365L59.1758 31.8824L59.9019 34.1365C59.9019 34.1365 62.1599 29.8377 62.1599 25.4511C62.1599 25.4511 58.6894 28.2903 55.6663 22.9874C54.5771 19.6974 36.0616 15.6763 35.0934 8C35.0934 8 31.9471 15.0671 39.329 18.9663Z" fill="#2B0042"/>
</mask>
<g mask="url(#mask4_2061_4855)">
<path d="M38.1809 60.4324C38.1809 60.4324 56.576 71.0415 65.9521 50.8118C75.3281 30.5824 64.9696 31.7513 64.9696 31.7513L55.2365 42.9899L38.1809 60.4324Z" fill="#2B0042"/>
</g>
<path d="M52.1569 31.0301C52.1569 31.0301 46.6224 30.8635 38.4031 32.1877C38.4031 32.1877 41.0334 28.5465 44.8141 27.2222C48.5953 25.898 52.1569 31.0301 52.1569 31.0301Z" fill="#451065"/>
<path d="M38.4031 32.1874C38.4031 32.1874 53.0334 29.484 56.9786 30.0634C56.9786 30.0634 50.3382 28.5633 46.4032 28.2151C41.7319 27.801 38.4031 32.1874 38.4031 32.1874Z" fill="#781C6D"/>
<path d="M56.9788 30.0614L38.4031 32.1855C38.4031 32.1855 40.3345 27.4404 56.9788 30.0614Z" fill="#C0177B"/>
<path d="M47.3645 31.1522L56.9814 30.0625C56.9814 30.0625 55.3768 31.6576 56.9396 34.1359C56.9396 34.1359 52.6251 31.111 47.3645 31.1522Z" fill="#310C4A"/>
<path d="M33.4002 57.8021C29.7455 54.3754 27.4614 49.4879 27.4614 44.0632C27.4614 35.2857 33.4415 27.9148 41.5234 25.8555L41.5557 25.8293C30.2401 19.5548 42.5689 24.851 30.4872 28.3278C29.7345 28.5437 29.0363 28.782 28.3899 29.0375C20.3036 32.2239 20.05 38.0921 20.05 38.0921L20.0109 38.1465C20.0217 38.2209 20.0348 38.2951 20.05 38.3696C20.05 38.3696 20.872 36.8232 22.8977 36.7141C24.9259 36.6026 25.5832 39.8041 22.8977 42.2307C20.2147 44.6591 18.6248 50.1211 20.269 54.4803C20.269 54.4803 20.3775 52.4929 22.5162 51.8858C24.6525 51.2788 25.8022 58.3416 29.1445 62.9755C29.1445 62.9755 29.0904 61.0452 31.3919 61.266C31.4354 61.2699 31.4787 61.2767 31.5242 61.2878C32.2854 61.4403 33.2331 62.2858 34.4913 63.3251L34.498 63.3296C37.0897 65.4655 40.994 68.4114 47.2843 67.8305C47.2843 67.8305 45.2562 67.1143 45.8029 65.6251C45.8397 65.5224 45.9483 65.4393 46.1174 65.3671C47.2344 64.8912 48.6102 64.8711 49.7894 64.6265C53.5638 63.8448 57.111 62.1855 59.6573 59.2037C60.0696 58.7205 60.4521 58.2115 60.804 57.6822C62.0793 55.7599 63.1694 53.3051 63.8071 50.1584C63.7985 50.1866 63.7875 50.2128 63.7767 50.2414C63.6309 50.6232 63.4909 51.0056 63.3171 51.3757C63.1364 51.7601 62.9516 52.1428 62.7625 52.523C62.5911 52.8679 62.4149 53.2101 62.2214 53.5427C61.7523 54.3485 61.2233 55.1192 60.6407 55.8459C59.4798 57.2944 58.1046 58.5693 56.5751 59.6148C53.5201 61.7021 49.8215 62.8445 46.115 62.8445C41.2023 62.8445 36.732 60.9313 33.4002 57.8021Z" fill="#53009C"/>
<path d="M57.9666 64.7992C58.075 64.7426 58.1857 64.6814 58.2986 64.6157C62.6629 62.1442 65.3839 57.3583 66.5622 52.5907C66.8271 51.5196 67.1765 50.2912 67.1765 49.18C67.0397 48.5794 66.9183 48.0292 66.8185 47.5659C66.1786 54.4388 62.8794 60.5365 57.9666 64.7992Z" fill="#781C6D"/>
<path d="M32.5703 69.6355C30.3774 67.4405 28.9067 64.8067 28.1022 63.2496C26.677 60.4912 23.8269 58.7265 21.8552 60.7664C21.5754 61.0571 21.3695 61.3582 21.2241 61.6617C20.4932 63.1666 21.2153 64.7325 21.4972 65.2434C21.3781 64.7437 21.1264 63.2933 21.9984 62.5641C22.1655 62.4263 22.3714 62.3128 22.6295 62.2386C22.6598 62.2275 22.6924 62.2187 22.7229 62.2123C22.9984 62.1424 23.3235 62.1159 23.712 62.1424C25.7747 62.2798 27.0523 65.5777 29.59 68.3619C31.0323 69.9476 32.8827 71.365 35.5177 71.9418C35.4854 71.9243 35.4528 71.9045 35.4225 71.887C34.3617 71.2581 33.4118 70.4784 32.5703 69.6355Z" fill="#310C4A"/>
<path d="M17.1795 56.438C17.0689 55.68 16.9953 54.9464 16.9498 54.2366C16.5331 47.888 18.3508 43.5636 16.0472 42.723C15.8413 42.6486 15.633 42.616 15.4271 42.6177C14.2166 42.6354 13.0238 43.8957 12.1149 45.1471C12.091 45.1819 12.0672 45.2148 12.0434 45.2474C12.015 45.5599 12 45.8763 12 46.1974C12 46.1974 12.026 46.1756 12.0779 46.1408C12.2169 46.0423 12.5358 45.8305 12.9411 45.6754C13.0107 45.6472 13.0822 45.621 13.1561 45.5969C13.1711 45.5926 13.1864 45.5881 13.1995 45.5838C13.2557 45.5663 13.3143 45.5508 13.373 45.538C13.9976 45.3916 14.7307 45.4439 15.3315 46.1165C15.6416 46.4662 15.9149 46.9837 16.1211 47.7263C16.5374 49.2353 16.5701 51.3908 16.7848 53.782C16.8868 54.9285 17.032 56.1298 17.2793 57.34C17.2662 57.0996 17.2403 56.8442 17.199 56.5712C17.1926 56.5276 17.1859 56.4816 17.1795 56.438Z" fill="#310C4A"/>
<path d="M15.8833 36.9325C15.9679 36.8276 16.0589 36.7205 16.1545 36.6114C16.4212 36.3122 16.7291 35.9979 17.0654 35.6724C20.0065 32.844 25.1148 29.2888 23.1713 28.0482C22.8285 27.8298 22.4642 27.6683 22.0912 27.5527C20.3493 27.0065 18.4362 27.4345 17.8657 27.5873C17.8028 27.605 17.7575 27.6178 17.7291 27.6246C18.1671 27.5853 20.0762 27.5352 20.41 29.5966C20.4427 29.7953 20.4598 30.0161 20.4598 30.2563C20.4598 31.5339 18.9806 33.1565 17.2606 35.1853C16.7096 35.8362 16.135 36.5263 15.573 37.2623C15.66 37.1924 15.7639 37.081 15.8833 36.9325Z" fill="#310C4A"/>
</g>
<defs>
<clipPath id="clip0_2061_4855">
<rect width="56" height="64" fill="white" transform="translate(12 8)"/>
</clipPath>
</defs>
</svg>
